<svg xmlns="http://www.w3.org/2000/svg" width="48" height="48" viewBox="0 0 48 48">
  <g id="Circle_Button_4" data-name="Circle Button 4" transform="translate(0)">
    <rect id="Area_SIZE:MEDIUM_STATE:DEFAULT_STYLE:STYLE3_" data-name="Area [SIZE:MEDIUM][STATE:DEFAULT][STYLE:STYLE3]" width="48" height="48" rx="24" transform="translate(0)" fill="#fff3c7"/>
    <g id="Icon_ICON_feather_phone_SIZE_MEDIUM_STATE_DEFAULT_STYLE_STYLE3_" data-name="Icon [ICON=feather/phone][SIZE=MEDIUM][STATE=DEFAULT][STYLE=STYLE3]" transform="translate(13.944 14)">
      <rect id="Area_ICON:feather_phone_SIZE:MEDIUM_STATE:DEFAULT_STYLE:STYLE3_" data-name="Area [ICON:feather/phone][SIZE:MEDIUM][STATE:DEFAULT][STYLE:STYLE3]" width="20" height="20" transform="translate(0.055)" fill="rgba(253,73,198,0.35)" opacity="0"/>
      <g id="Icon">
        <path id="_34166008-6d76-46e2-a41a-fae04f14c8db" data-name="34166008-6d76-46e2-a41a-fae04f14c8db" d="M22.079,16.981v3.011A2.007,2.007,0,0,1,19.891,22a19.873,19.873,0,0,1-8.661-3.081A19.57,19.57,0,0,1,5.209,12.9,19.856,19.856,0,0,1,2.128,4.2a2.006,2.006,0,0,1,2-2.188H7.136A2.008,2.008,0,0,1,9.143,3.733a12.932,12.932,0,0,0,.7,2.821,2.006,2.006,0,0,1-.451,2.117L8.119,9.946a16.055,16.055,0,0,0,6.022,6.021l1.274-1.274a2.008,2.008,0,0,1,2.118-.452,12.868,12.868,0,0,0,2.82.7A2.006,2.006,0,0,1,22.079,16.981Z" transform="translate(-2.12 -2.007)" fill="none" stroke="#0f0e0d" stroke-linecap="round" stroke-linejoin="round" stroke-width="2.007"/>
      </g>
    </g>
  </g>
</svg>
