<svg xmlns="http://www.w3.org/2000/svg" width="39.057" height="27" viewBox="0 0 39.057 27">
  <path id="Icon_awesome-mail-bulk" data-name="Icon awesome-mail-bulk" d="M19.528,38.25c-3.125,0-6.249-2.362-7.811-3.375C3.906,30.15,1.562,28.462,0,27.45V41.625A3.67,3.67,0,0,0,3.906,45H35.151a3.67,3.67,0,0,0,3.906-3.375V27.45c-1.562,1.012-3.906,2.7-11.717,7.425C25.777,35.887,22.653,38.25,19.528,38.25ZM35.151,18H3.906A3.67,3.67,0,0,0,0,21.375v1.687c3.125,2.025,2.734,2.025,14.06,9.112,1.172.675,3.515,2.7,5.468,2.7s4.3-2.025,5.468-2.362c11.326-7.087,10.936-7.087,14.06-9.112V21.375A3.67,3.67,0,0,0,35.151,18Z" transform="translate(0 -18)" fill="#fbd2b6"/>
</svg>
