<svg xmlns="http://www.w3.org/2000/svg" width="36" height="36" viewBox="0 0 36 36">
  <path id="Icon_awesome-phone-alt" data-name="Icon awesome-phone-alt" d="M1.027,25.439,8.9,22.064a1.688,1.688,0,0,1,1.969.485l3.488,4.261A26.062,26.062,0,0,0,26.817,14.351l-4.261-3.488A1.683,1.683,0,0,1,22.071,8.9L25.446,1.02A1.7,1.7,0,0,1,27.38.043L34.692,1.73A1.688,1.688,0,0,1,36,3.375,32.622,32.622,0,0,1,3.375,36a1.688,1.688,0,0,1-1.645-1.308L.042,27.38a1.708,1.708,0,0,1,.985-1.941Z" transform="translate(0 0)" fill="#fbd2b6"/>
</svg>
