<svg xmlns="http://www.w3.org/2000/svg" width="36" height="36" viewBox="0 0 36 36">
  <path id="Icon_awesome-check-circle" data-name="Icon awesome-check-circle" d="M36.563,18.563a18,18,0,1,1-18-18A18,18,0,0,1,36.563,18.563ZM16.48,28.093,29.835,14.739a1.161,1.161,0,0,0,0-1.642l-1.642-1.642a1.161,1.161,0,0,0-1.642,0L15.659,22.345,10.574,17.26a1.161,1.161,0,0,0-1.642,0L7.29,18.9a1.161,1.161,0,0,0,0,1.642l7.548,7.548a1.161,1.161,0,0,0,1.642,0Z" transform="translate(-0.563 -0.563)" fill="#fff"/>
</svg>
